<?xml version="1.0" encoding="utf-8"?>
<!-- Generator: Adobe Illustrator 16.0.0, SVG Export Plug-In . SVG Version: 6.00 Build 0)  -->
<!DOCTYPE svg PUBLIC "-//W3C//DTD SVG 1.1//EN" "http://www.w3.org/Graphics/SVG/1.1/DTD/svg11.dtd">
<svg version="1.1" id="_x30_0" xmlns="http://www.w3.org/2000/svg" xmlns:xlink="http://www.w3.org/1999/xlink" x="0px" y="0px"
	 width="3968.504px" height="1984.252px" viewBox="0 0 3968.504 1984.252" enable-background="new 0 0 3968.504 1984.252"
	 xml:space="preserve">
<path fill="#E30513" d="M99.212,1091.338c595.276,0,1190.551,0,1785.827,0c54.793,0,99.212-44.419,99.212-99.212
	s-44.419-99.212-99.212-99.212c-595.276,0-1190.551,0-1785.827,0C44.419,892.914,0,937.333,0,992.126
	S44.419,1091.338,99.212,1091.338z"/>
<path fill="#E30513" d="M99.212,198.425c595.276,0,1190.551,0,1785.827,0c54.793,0,99.212-44.419,99.212-99.213
	S1939.833,0,1885.04,0C1289.764,0,694.488,0,99.212,0C44.419,0,0,44.419,0,99.213S44.419,198.425,99.212,198.425z"/>
<path fill="#E30513" d="M3422.834,1984.252c144.717,0,283.507-57.487,385.839-159.815c102.337-102.333,159.83-241.13,159.83-385.854
	c0-144.717-57.487-283.507-159.815-385.839c-102.333-102.337-241.13-159.83-385.854-159.83c-297.638,0-595.275,0-892.913,0
	c-191.778,0-347.244-155.467-347.244-347.244c0-191.778,155.466-347.244,347.244-347.244c446.457,0,892.913,0,1339.37,0
	c54.794,0,99.213-44.419,99.213-99.213S3924.085,0,3869.291,0c-446.457,0-892.913,0-1339.37,0
	c-144.717,0-283.507,57.487-385.839,159.816c-102.337,102.333-159.83,241.13-159.83,385.854
	c0,144.717,57.487,283.507,159.815,385.839c102.333,102.337,241.13,159.83,385.854,159.83c297.638,0,595.275,0,892.913,0
	c191.778,0,347.244,155.467,347.244,347.244c0,191.778-155.466,347.244-347.244,347.244c-1107.874,0-2215.748,0-3323.622,0
	C44.419,1785.827,0,1830.246,0,1885.04c0,54.793,44.419,99.212,99.212,99.212C1207.086,1984.252,2314.96,1984.252,3422.834,1984.252
	z"/>
</svg>
